# xmcd CD database file generated by Grip 3.3.1
# 
# Track frame offsets:
#       150
#       22752
#       38640
#       55355
#       77532
#       95290
#       117185
#       138620
#       151060
#       166200
#       189912
#       213155
#       232307
# 
# Disc length: 3358 seconds
# 
# Revision: 4
# Processed by: cddbd v1.5.1PL2 Copyright (c) Steve Scherf et al.
# Submitted via: Grip 3.3.1
# 
DISCID=9a0d1c0d
DTITLE=Mina Aoe - The Shadow of Love
DYEAR=1993
DGENRE=Jazz
TTITLE0=Cry Me a River
TTITLE1=It's Only a Paper Moon
TTITLE2=The Man I Love
TTITLE3=Love Letters
TTITLE4=Lover Come Back to Me
TTITLE5=Bourbon Street Blues (伊勢佐木町ブルース)
TTITLE6=Harbour Lights
TTITLE7=When the Band Begins to Play
TTITLE8=What a Difference a Day Made
TTITLE9=Green Eyes
TTITLE10=Gray Shade of Love
TTITLE11=Sentimental Journey
TTITLE12=Honmoku Blues (本牧ブルース)
EXTD=YEAR: 1993
EXTT0=
EXTT1=
EXTT2=
EXTT3=
EXTT4=
EXTT5=
EXTT6=
EXTT7=
EXTT8=
EXTT9=
EXTT10=
EXTT11=
EXTT12=
PLAYORDER=
